# xmcd CD database file
#
# Track frame offsets:
#	150
#	23677
#	43659
#	60777
#	79427
#	104919
#	119312
#	138922
#	166457
#	189232
#	208762
#
# Disc length: 3056 seconds
#
# Revision: 0
# Processed by: cddbd v1.4PL0 Copyright (c) Steve Scherf et al.
# Submitted via: CDex 1.51
#
DISCID=940bee0b
DTITLE=Vasko 'The Patch' Georgiev - Noshtni Peperudi
DYEAR=2003
DGENRE=Blues
TTITLE0=Zhivot Na Put
TTITLE1=I Zavinagi...
TTITLE2=Ako
TTITLE3=Naprolet
TTITLE4=Edna Kitara
TTITLE5=V edno Kioshe Sedi Shishe
TTITLE6=Noshtni Peperudi
TTITLE7=Spia (Kamen Katsata)
TTITLE8=Toyoda Blues
TTITLE9=Man In Love
TTITLE10=Most
EXTD=YEAR: 2003
EXTT0=
EXTT1=
EXTT2=
EXTT3=
EXTT4=
EXTT5=
EXTT6=
EXTT7=
EXTT8=
EXTT9=
EXTT10=
PLAYORDER=
